<?xml version="1.0" standalone="no"?>
<!DOCTYPE svg PUBLIC "-//W3C//DTD SVG 20010904//EN"
 "http://www.w3.org/TR/2001/REC-SVG-20010904/DTD/svg10.dtd">
<svg version="1.0" xmlns="http://www.w3.org/2000/svg"
 width="1201.000000pt" height="1201.000000pt" viewBox="0 0 1201.000000 1201.000000"
 preserveAspectRatio="xMidYMid meet">
<metadata>
Created by potrace 1.14, written by Peter Selinger 2001-2017
</metadata>
<g transform="translate(0.000000,1201.000000) scale(0.100000,-0.100000)"
fill="#000000" stroke="none">
<path d="M4660 10320 c-97 -11 -173 -21 -190 -25 -8 -2 -31 -7 -50 -10 -73
-12 -227 -57 -314 -92 -222 -88 -428 -226 -616 -413 -79 -78 -234 -266 -253
-307 -5 -13 -14 -23 -19 -23 -4 0 -8 -4 -8 -9 0 -5 -18 -38 -39 -72 -111 -179
-205 -421 -265 -679 -10 -43 -66 -309 -70 -335 -3 -16 -12 -68 -20 -115 -9
-47 -17 -100 -18 -117 -1 -19 -8 -33 -15 -33 -40 0 -343 -154 -429 -218 -162
-120 -212 -201 -248 -402 -8 -46 -116 -564 -132 -630 -8 -36 -17 -76 -19 -90
-3 -14 -10 -52 -16 -85 -6 -33 -13 -69 -14 -80 -2 -11 -6 -33 -9 -50 -37 -208
-51 -390 -51 -675 0 -308 17 -480 70 -700 14 -57 28 -131 30 -164 11 -143 16
-203 20 -236 3 -19 7 -57 10 -85 3 -27 7 -61 10 -75 2 -14 6 -47 10 -74 5 -42
35 -220 50 -296 4 -21 39 -182 50 -230 4 -21 44 -174 60 -235 65 -244 161
-499 269 -715 88 -176 147 -262 245 -360 143 -143 272 -192 506 -194 142 -1
172 2 428 38 l88 13 19 -28 c11 -15 20 -29 20 -32 0 -3 22 -44 50 -92 208
-360 429 -593 671 -708 174 -82 311 -104 534 -84 167 16 461 95 705 192 112
44 400 183 450 217 51 35 273 158 360 200 119 58 292 138 297 138 10 0 264
129 333 170 91 53 283 172 290 180 3 3 25 18 49 35 62 42 154 136 242 245 77
97 146 191 164 222 6 9 29 48 52 86 133 218 219 444 277 725 14 66 26 121 28
123 2 2 16 -20 31 -50 73 -144 220 -309 322 -360 132 -68 382 -31 726 104 219
87 442 206 544 290 124 103 188 212 289 494 31 84 44 128 71 226 8 30 44 196
49 225 8 49 25 158 31 195 24 171 25 599 0 785 -9 68 -36 249 -41 275 -16 87
-24 121 -50 225 -81 325 -246 739 -346 867 -126 162 -315 261 -611 322 -77 16
-108 20 -232 32 -38 3 -79 8 -90 9 -11 2 -22 4 -25 4 -3 1 -6 79 -6 174 0 248
-9 378 -36 527 -21 112 -27 136 -50 205 -89 260 -226 424 -523 622 -319 213
-717 372 -1350 538 -55 15 -149 39 -210 55 -123 33 -244 69 -645 193 -360 111
-574 168 -730 192 -19 3 -46 7 -60 10 -14 2 -47 7 -75 10 -27 4 -61 8 -75 11
-44 8 -433 11 -500 4z m1101 -1134 c65 -4 128 -9 140 -11 13 -2 60 -9 104 -15
99 -14 199 -35 290 -62 38 -11 78 -22 90 -24 11 -2 94 -22 184 -44 222 -55
329 -99 397 -165 35 -34 57 -109 70 -243 3 -37 9 -88 13 -114 l8 -47 -36 18
c-106 54 -292 91 -536 106 -38 2 -126 7 -195 12 -239 14 -837 7 -1080 -12 -25
-2 -79 -6 -120 -10 -41 -3 -88 -7 -105 -9 -16 -2 -61 -7 -100 -10 -38 -4 -81
-8 -95 -11 -14 -2 -52 -7 -85 -10 -124 -13 -595 -90 -730 -119 -120 -26 -225
-48 -245 -52 -14 -2 -109 -26 -212 -53 -104 -26 -188 -47 -188 -46 0 1 10 13
21 26 12 13 56 67 99 120 89 109 158 174 241 227 33 20 96 61 141 90 81 52
298 164 407 210 161 69 546 180 681 197 8 1 29 5 45 8 17 4 48 9 70 12 22 2
58 7 80 10 69 10 116 14 245 21 69 4 126 7 127 8 3 3 165 -2 274 -8z m549
-830 c52 -4 122 -9 155 -12 33 -2 85 -6 115 -9 314 -23 502 -126 600 -330 21
-44 42 -94 45 -111 l6 -32 -53 4 c-367 22 -1433 21 -1808 -1 -36 -3 -108 -7
-160 -10 -96 -5 -203 -12 -295 -20 -27 -2 -86 -7 -130 -10 -44 -3 -96 -8 -115
-10 -19 -3 -60 -7 -90 -10 -125 -12 -207 -22 -270 -30 -19 -3 -55 -8 -80 -10
-114 -13 -339 -49 -495 -79 -44 -8 -100 -18 -102 -18 -2 1 -17 -4 -35 -9 -18
-5 -44 -12 -58 -14 -14 -3 -68 -16 -120 -30 -52 -14 -104 -27 -115 -30 -76
-18 -362 -111 -460 -149 -191 -75 -395 -168 -499 -228 -27 -16 -49 -28 -50
-26 -2 2 14 85 34 185 31 159 40 188 66 220 77 96 253 198 505 291 114 43 341
114 400 127 9 2 47 12 85 24 68 20 373 97 417 105 12 2 78 16 147 31 134 28
137 29 190 39 19 3 46 8 60 11 57 11 329 55 375 60 28 4 60 8 71 10 12 2 48 7
80 10 33 4 67 9 77 11 10 2 55 6 100 10 45 3 90 8 100 10 9 1 54 6 100 9 45 4
102 9 127 11 25 2 110 6 190 10 80 3 146 7 147 8 6 5 657 -2 743 -8z m2319
-918 c-45 -159 -104 -413 -115 -498 -2 -19 -9 -60 -14 -90 -5 -30 -12 -80 -15
-110 -3 -30 -8 -71 -10 -90 -5 -43 -14 -137 -20 -210 -7 -78 -7 -462 -1 -540
3 -36 8 -96 12 -135 5 -72 7 -89 19 -163 4 -23 8 -52 9 -65 2 -12 6 -35 9 -52
4 -16 9 -46 12 -65 26 -159 104 -426 170 -585 57 -137 193 -384 216 -393 5 -2
9 -8 9 -14 0 -12 77 -108 149 -183 51 -54 111 -108 181 -163 14 -11 23 -22 20
-25 -3 -2 -53 -20 -112 -40 -196 -67 -343 -96 -413 -83 -44 9 -121 82 -184
175 -76 112 -181 338 -236 511 -10 30 -20 60 -24 65 -3 6 -6 15 -7 20 -1 6
-18 62 -37 125 -53 168 -101 362 -122 490 -3 19 -7 46 -10 60 -3 14 -7 41 -10
60 -3 19 -7 46 -10 60 -5 28 -13 89 -20 146 -3 22 -7 55 -10 74 -5 38 -11 88
-21 195 -3 39 -8 88 -10 110 -6 59 -6 386 1 415 3 14 8 50 11 80 3 30 7 62 9
70 7 48 16 128 17 150 0 14 4 48 9 75 4 28 11 68 14 89 3 21 7 48 10 60 3 12
7 33 9 48 3 15 28 98 56 183 56 167 75 199 172 281 61 52 94 61 214 63 l102 2
-29 -103z m406 87 c50 -4 92 -8 95 -10 3 -2 25 -6 50 -9 174 -23 382 -111 469
-198 52 -52 115 -166 171 -309 12 -30 28 -67 36 -84 50 -107 148 -454 183
-646 18 -95 24 -136 37 -244 19 -164 24 -429 11 -618 -20 -278 -100 -615 -204
-857 -61 -142 -83 -178 -135 -221 -62 -53 -198 -139 -219 -139 -8 0 -51 23
-94 51 -325 211 -567 634 -675 1179 -10 52 -21 115 -25 140 -3 25 -8 59 -11
75 -3 17 -7 41 -9 55 -4 30 -15 144 -21 220 -6 86 -6 470 0 520 3 25 8 74 11
110 3 36 7 74 9 85 2 11 7 50 10 87 4 37 9 77 11 90 2 13 11 66 20 118 27 155
84 392 131 542 19 60 28 76 42 74 9 -2 58 -7 107 -11z m-1492 -597 c41 -63 92
-116 167 -178 29 -25 67 -57 83 -71 l29 -27 -11 -73 c-5 -41 -13 -96 -16 -124
-7 -51 -7 -367 -1 -440 7 -88 17 -192 20 -220 2 -16 7 -61 11 -100 4 -38 9
-79 11 -90 2 -11 6 -38 9 -60 6 -44 44 -276 51 -309 3 -12 9 -41 14 -66 16
-76 17 -81 53 -220 19 -74 39 -146 45 -160 9 -24 -6 -86 -30 -116 -4 -6 -20
-33 -34 -60 -28 -53 -125 -192 -171 -246 -154 -179 -386 -360 -622 -486 -49
-26 -239 -113 -256 -117 -5 -1 -17 -5 -25 -8 -34 -14 -158 -56 -200 -68 -25
-7 -49 -14 -55 -15 -23 -7 -171 -44 -176 -44 -4 0 -10 16 -14 36 -8 46 -78
118 -126 129 -100 23 -218 -6 -334 -82 -64 -43 -159 -144 -185 -198 -72 -149
-7 -308 144 -353 70 -22 256 -27 346 -10 72 13 145 53 170 93 11 17 22 57 26
89 4 32 12 59 18 61 6 2 54 13 106 25 278 65 600 197 835 343 50 31 215 146
225 157 3 3 27 23 55 45 86 69 242 230 309 320 21 28 20 14 -9 -141 -80 -435
-213 -714 -506 -1069 -67 -82 -215 -201 -324 -261 -11 -6 -51 -30 -88 -53 -76
-47 -274 -150 -382 -198 -302 -137 -433 -203 -581 -293 -36 -22 -68 -40 -70
-40 -3 0 -23 -12 -45 -26 -169 -106 -536 -254 -794 -318 -100 -25 -124 -29
-247 -44 -333 -40 -599 122 -875 533 -74 111 -236 417 -323 610 -12 28 -40 88
-61 133 -22 46 -39 86 -39 89 0 3 -46 96 -102 207 -309 613 -298 591 -403 861
-5 11 -9 25 -10 30 -1 6 -10 32 -19 58 -20 59 -53 190 -61 237 -3 19 -8 46
-10 60 -8 39 -14 88 -20 170 -8 113 -16 183 -21 192 -5 8 5 13 231 105 152 62
249 99 341 127 l41 13 -40 -116 c-34 -98 -40 -131 -42 -209 -7 -264 146 -463
357 -463 88 -1 159 22 267 86 113 66 136 73 256 79 278 14 349 39 472 164 95
96 97 99 130 165 37 73 39 176 4 226 -50 70 -138 75 -196 11 -14 -16 -20 -37
-21 -74 -1 -62 -13 -87 -73 -149 -75 -79 -119 -93 -321 -102 -141 -7 -213 -24
-299 -72 -36 -20 -90 -49 -120 -65 -87 -46 -144 -38 -178 25 -64 119 -51 225
58 469 23 51 43 95 45 97 4 5 215 46 285 56 68 10 103 15 119 20 8 2 44 7 80
10 36 3 72 8 80 10 8 2 44 6 80 10 36 3 80 8 99 10 19 3 69 7 110 10 42 3 96
8 121 10 126 12 378 18 670 15 928 -6 1009 -5 1125 20 22 5 56 11 75 14 50 8
138 39 214 77 140 70 249 183 330 342 26 52 48 100 50 108 1 8 13 47 25 88 35
115 63 262 77 401 3 30 7 69 9 85 4 30 18 290 19 333 0 12 1 22 2 22 0 0 17
-24 37 -52z m-4742 -2045 c1 -64 7 -141 13 -178 3 -16 9 -50 12 -75 10 -78 61
-281 99 -395 70 -208 155 -394 390 -850 45 -88 104 -207 130 -265 26 -58 63
-139 82 -180 51 -110 74 -162 71 -165 -3 -3 -59 -11 -143 -20 -27 -3 -58 -8
-68 -11 -10 -3 -74 -7 -143 -9 -203 -5 -298 28 -403 141 -58 62 -131 174 -189
289 -76 152 -183 438 -233 620 -29 105 -87 336 -93 365 -2 14 -14 72 -25 130
-20 103 -45 251 -55 320 -14 103 -17 128 -20 165 l-3 40 71 -2 c107 -2 269 36
421 100 83 35 85 35 86 -20z"/>
<path d="M4541 4207 c-24 -12 -83 -62 -132 -110 l-87 -89 -59 17 c-72 21 -151
22 -191 1 -38 -19 -90 -85 -120 -150 -26 -55 -72 -193 -72 -216 0 -13 -10 -35
-67 -143 -17 -33 -12 -86 11 -123 39 -59 190 -114 314 -114 192 0 400 81 722
281 155 96 279 155 415 199 104 34 125 47 145 92 17 39 17 57 -5 110 -13 31
-68 55 -190 83 -146 34 -360 100 -477 149 -101 42 -146 45 -207 13z"/>
</g>
</svg>
