<svg width="101" height="100" fill="none" xmlns="http://www.w3.org/2000/svg"><path d="M38.61 29.702c-3.52 0-6.97 2.774-7.05 6.697-.08 3.922.09 24.844.09 24.844s-1.38 6.624 7.42 7.45c4.56.429 19.07-.424 23.89-.261 4.82.163 6.51-2.357 6.75-7.015.25-4.658.17-20.593.09-24.352-.08-3.76-3.01-6.461-6.03-6.87-3.03-.41-21.65-.493-25.16-.493Zm3.74 4.204c4.64.063 17.27-.051 19.22.55 1.94.602 3.95 1.882 3.97 6.639.01 4.757-.03 14.159.05 17.278.09 3.118-.8 6.265-5.07 6.262-4.27-.004-15.16.123-17.57.029-2.41-.095-6.4.505-6.78-4.407-.38-4.912-.35-17.695-.38-21.191-.02-3.497 1.91-5.224 6.56-5.16Z" fill="#fff" stroke="#fff" stroke-width="2" stroke-miterlimit="10" stroke-linecap="round" stroke-linejoin="round"/><path d="M40.94 29.37c.17-1.327.05-3.727.21-5.02M50.22 29.267c.14-1.14.39-4.167.02-5.207M58.74 29.372c-.2-.959-.08-1.948-.12-2.92-.01-.298-.12-1.417-.14-1.289M70.38 40.653c1.2.573 5.31.031 5.31.031M70.17 47.888c1.51-.03 5.79.091 5.79.091M70.48 55.68c1.6-.572 5.37-.036 5.37-.036M59.44 68.705c-.25.09-.07-.01-.1.463-.11 2.19.17 3.19.16 6.17M51 68.74c-.21 1.22-.03 4.995-.1 6.236M43.39 69.004c-.46 2.57-.14 6.685-.14 6.685M24.2 41.643c2.17-.045 4.74-.034 7.12-.007M23.97 49.231c.41-.089 5.9-.406 6.78-.133M23.98 56.293s5.32-.837 6.87-.356" stroke="#fff" stroke-width="2" stroke-miterlimit="10" stroke-linecap="round" stroke-linejoin="round"/><path d="m48.44 20.213 3.85.054-.03 3.609-3.71-.028-.11-3.635ZM39.34 20l3.84.054-.03 3.609-3.7-.028L39.34 20ZM56.79 20.291l3.85.054-.04 3.609-3.7-.028-.11-3.635ZM76.59 39.133l3.85.054-.04 3.61-3.7-.03-.11-3.634ZM76.42 46.198l3.84.054-.03 3.61-3.7-.029-.11-3.635ZM76.42 53.787l3.84.054-.03 3.61-3.7-.029-.11-3.635ZM57.55 76.003l3.85.054-.03 3.61-3.71-.03-.11-3.634ZM20.5 54.31l3.85.054-.03 3.61-3.71-.028-.11-3.636ZM20.5 46.897l3.85.053-.03 3.61-3.71-.029-.11-3.634ZM20.59 38.784l3.84.054-.03 3.609-3.7-.028-.11-3.635ZM49.72 76.118l3.85.054-.03 3.61-3.7-.03-.12-3.634ZM41.18 75.944l3.84.054-.03 3.61-3.7-.029-.11-3.635Z" fill="#fff" stroke="#fff" stroke-width="2" stroke-miterlimit="10" stroke-linecap="round" stroke-linejoin="round"/><path d="M42.61 41.458c-.99 1.896-1.68 12.236.18 16.354.9 1.974 13.34 2.09 15.48-.089 1.69-1.72.85-13.198-.19-16.067-.98-2.696-14.29-2.469-15.47-.198Z" stroke="#fff" stroke-width="2" stroke-miterlimit="10" stroke-linecap="round" stroke-linejoin="round"/></svg>