<svg width="101" height="100" fill="none" xmlns="http://www.w3.org/2000/svg"><path d="M38.61 29.702c-3.52 0-6.97 2.774-7.05 6.697-.08 3.922.09 24.844.09 24.844s-1.38 6.624 7.42 7.45c4.56.429 19.07-.424 23.89-.261 4.82.163 6.51-2.357 6.75-7.015.25-4.658.17-20.593.09-24.352-.08-3.76-3.01-6.461-6.03-6.87-3.03-.41-21.65-.493-25.16-.493Zm3.74 4.204c4.64.063 17.27-.051 19.22.55 1.94.602 3.95 1.882 3.97 6.639.01 4.757-.03 14.159.05 17.278.09 3.118-.8 6.265-5.07 6.262-4.27-.004-15.16.123-17.57.029-2.41-.095-6.4.505-6.78-4.407-.38-4.912-.35-17.695-.38-21.191-.02-3.497 1.91-5.224 6.56-5.16Z" fill="#fff" stroke="#fff" stroke-width="2" stroke-miterlimit="10" stroke-linecap="round" stroke-linejoin="round"/><path d="M40.94 29.37c.17-1.327.05-3.727.21-5.02m9.07 4.917c.14-1.14.39-4.167.02-5.207m8.5 5.312c-.2-.959-.08-1.948-.12-2.92-.01-.298-.12-1.417-.14-1.289m11.9 15.49c1.2.573 5.31.031 5.31.031m-5.52 7.204c1.51-.03 5.79.091 5.79.091m-5.48 7.701c1.6-.572 5.37-.036 5.37-.036M59.44 68.705c-.25.09-.07-.01-.1.463-.11 2.19.17 3.19.16 6.17M51 68.74c-.21 1.22-.03 4.995-.1 6.236m-7.51-5.972c-.46 2.57-.14 6.685-.14 6.685M24.2 41.643c2.17-.045 4.74-.034 7.12-.007m-7.35 7.595c.41-.089 5.9-.406 6.78-.133m-6.77 7.195s5.32-.837 6.87-.356" stroke="#fff" stroke-width="2" stroke-miterlimit="10" stroke-linecap="round" stroke-linejoin="round"/><path d="m48.44 20.213 3.85.054-.03 3.609-3.71-.028-.11-3.635ZM39.34 20l3.84.054-.03 3.609-3.7-.028L39.34 20Zm17.45.291 3.85.054-.04 3.609-3.7-.028-.11-3.635Zm19.8 18.842 3.85.054-.04 3.61-3.7-.03-.11-3.634Zm-.17 7.065 3.84.054-.03 3.61-3.7-.029-.11-3.635Zm0 7.589 3.84.054-.03 3.61-3.7-.029-.11-3.635ZM57.55 76.003l3.85.054-.03 3.61-3.71-.03-.11-3.634ZM20.5 54.31l3.85.054-.03 3.61-3.71-.028-.11-3.636Zm0-7.413 3.85.053-.03 3.61-3.71-.029-.11-3.634Zm.09-8.113 3.84.054-.03 3.609-3.7-.028-.11-3.635Zm29.13 37.334 3.85.054-.03 3.61-3.7-.03-.12-3.634Zm-8.54-.174 3.84.054-.03 3.61-3.7-.029-.11-3.635Z" fill="#fff" stroke="#fff" stroke-width="2" stroke-miterlimit="10" stroke-linecap="round" stroke-linejoin="round"/><path d="M42.61 41.458c-.99 1.896-1.68 12.236.18 16.354.9 1.974 13.34 2.09 15.48-.089 1.69-1.72.85-13.198-.19-16.067-.98-2.696-14.29-2.469-15.47-.198Z" stroke="#fff" stroke-width="2" stroke-miterlimit="10" stroke-linecap="round" stroke-linejoin="round"/></svg>