<svg width="101" height="100" fill="none" xmlns="http://www.w3.org/2000/svg"><path d="M22.083 70.683c0-2.304 1.7-7.125 2.508-8.405 0 0-2.968 7.577 2.733 14.058 5.7 6.481 14.274 5.992 14.274 5.992l.953 1.288c-1.434.416-5.026 1.2-8.914 0-4.86-1.5-5.998-2.402-8.55-5.247-2.18-2.432-3.004-4.352-3.004-7.686Z" fill="#000" stroke="#000" stroke-width="2"/><path d="M40.168 82.336c-4.575-.501-8.805-3.753-11.154-5.461-2.348-1.709-5.293-6.23-5.293-10.535 0-3.153 1.884-6.298 3.024-7.49 2.213-2.084 4.267-3.798 11.157-3.006 2.687.308 4.991 1.824 6.793 3.619" stroke="#000" stroke-width="2"/><path d="M34.207 68.564c-.025 1.674 1.655 4.55 1.824 4.796.169.245-.53-1.93.5-4.796 1.03-2.865 7.587-9 7.587-9l8.671-3.83h7.034c.501-.546 2.889-1.277-.479-2.048-4.21-.965-7.883-.346-11.847.561-3.965.907-7.112 3.806-9.313 5.858-2.2 2.05-3.946 6.367-3.977 8.46Z" fill="#000" stroke="#000" stroke-width="2"/><path d="M40.077 76.47c-.186 1.954.408 6.243 4.272 7.763 4.83 1.9 9.194 2.692 14.449.246 5.254-2.446 10.018-7.147 10.732-11.498" stroke="#000" stroke-width="2"/><path d="M30.647 65.521c.102-3.951 4.63-4.434 6.235-4.35 0 0-1.324 2.191-2.003 4.915s.644 7.45.644 7.45c-3.159-1.436-4.931-5.87-4.876-8.015Z" fill="#000" stroke="#000" stroke-width="2"/><path d="M31.776 42.325c-1.033 4.485-1.717 10.943-1.617 13.87 2.197-1.11 6.337-.957 8.5-.497-.562-1.52.168-8.294 1.295-12.102 1.127-3.809 2.1-9.894 6.852-16.76 3.916-5.66 9.44-7.933 12.358-8.585-.418-1.308-2.086-3.993-5.412-4.263-4.157-.338-6.964 2.29-9.618 4.262-2.063 1.534-5.265 6.15-6.065 7.459-2.453 4.013-4.647 9.477-6.293 16.616Z" stroke="#000" stroke-width="2"/><path d="M51.107 70.94c-1.972 1.338-2.989 4.144-3.25 5.38-.497 5.184 5.443 4.982 7.57 4.91l.034-.002c2.096-.071 3.92-1.363 5.832-3.346 1.844-1.91 3.208-6.098.456-8.297-2.752-2.198-8.177-.316-10.642 1.355Z" fill="#000" stroke="#000" stroke-width="2"/><path d="M57.734 55.791c-5.151.189-16.543 3.076-20.901 13.12-.507 1.222-1.29 3.966-.366 5.17 1.156 1.505 3.396 2.54 4.383 1.84.988-.699 5.832-14.222 18.334-13.385 9.977.668 10.913 7.933 10.277 10.748a.188.188 0 0 0-.005.042c0 .017.025.022.03.005.72-2.761 3.187-8.168-1.164-13.714" stroke="#000" stroke-width="2"/><path d="m60.23 46.153 3.159 1.795c-2.067 6.345-3.056 9.111-3.474 9.616-.653-.514-2.009-1.804-2.209-2.859-.2-1.054 1.6-6.14 2.524-8.552Z" fill="#000" stroke="#000" stroke-width="2"/><path d="M60.42 46.134c.724-6.592 2.998-19.282-.975-26.78-.674-.961-1.55-3.412-3.341-4.61a11.843 11.843 0 0 0-1.882-.675c-.66-.109-.55-.142 0 0 .076.013.163.026.26.04a3.93 3.93 0 0 1 1.622.636c1.518.689 3.448 1.924 4.74 4.022 2.824 4.588 3.364 8.267 2.992 14.325-.396 6.435-.138 11.22-1.611 14.957l-1.805-1.915Z" fill="#000" stroke="#000" stroke-width="2"/><path d="M74.647 30.781c.494 6.487-.829 14.645-1.928 19.309L62.64 47.865c.157-2.758.75-6.474.949-17.084.2-10.61-6.481-16.298-9.136-16.7 1.935.29 8.482 1.242 10.51 1.965 2.533.903 3.462 1.404 5.044 3.321 1.582 1.917 4.18 5.38 4.64 11.414Z" stroke="#000" stroke-width="2"/><path d="M60.006 57.175c.688-.927 2.509-6.575 3.375-9.371 4.472 1.511 10.11 1.953 10.122 3.007.011 1.054-3.804 8.478-4.156 9.271-.353.793-10.201-1.748-9.341-2.907Z" stroke="#000" stroke-width="2"/></svg>