<svg width="101" height="100" fill="none" xmlns="http://www.w3.org/2000/svg"><path d="M32.81 71.316c-.411-.253.139.01.553-1.734.095-.4.588-2.056 1.09-2.182.519-.129 1.615.562 2.105.195.336-.252 1.576-1.964 2.103-1.753 1.133.453.79.384 1.928.74 1.062.332 1.343.422 1.774.545.097.029 1.989.445 1.909.468-1.753.507-3.192 1.274-3.584 1.52-1.98 1.236-5.524 3.644-7.877 2.2Z" fill="#fff" stroke="#fff" stroke-width="2" stroke-miterlimit="10" stroke-linecap="round" stroke-linejoin="round"/><path d="M31.976 55.01c-.441.884-1.266 2.651-1.372 3.71-.136 1.355.708 3.76 2.92 2.877.855-.342 1.545-1.033 2.503-1.153 1.079-.135 2.554.022 3.524-.56.58-.348 2.032-1.766 1.613-2.602" stroke="#fff" stroke-width="2" stroke-miterlimit="10" stroke-linecap="round" stroke-linejoin="round"/><path d="M61.438 35.636c1.106 26.248-5.986 14.095-29.292 19.04-7.448 1.581-13.757 7.056-14.883 2.841-1.908-6.992.364-14.974.364-14.974s2.749-2.762 11.028-4.933c7.862-2.062 20.509-2.222 20.509-2.222s7.792-.071 12.274.248Z" fill="#fff" stroke="#fff" stroke-width="2" stroke-miterlimit="10" stroke-linecap="round" stroke-linejoin="round"/><path d="M24.274 57.643c-.25.392.047 1.044.056 1.484.087 4.509 2.173 8.438 4.237 12.374 2.374 4.527 4.893 12.822 10.595 14.153 3.16.738 9.028-1.634 11.62-3.182 2.95-1.762 3.234-1.775 6.377-3.237 1.268-.59 4.666-2.508 5.59-3.551 1.961-2.216 3.351-4.346 4.291-7.149.42-1.249 1.47-6.221.95-7.61m-42.04-29.1c.184-.253 1.785-2.145 1.979-2.4 1.206-1.573 1.799-1.852 3.453-2.907 5.892-3.762 14.952-5.134 21.736-3.116 1.769.526 5.354.864 6.143 2.866.446 1.13.335 2.704.666 3.779 0 .003 2.339.74 2.446 1.614.21 1.722.445 5.237.724 8.526.202 2.38 2.713 3.194 3.003 4.143.03.069.57-3.092.57-3.092s.96-2.937 1.02-3.018c.41-.48 1.28-1.406 1.8-1.677 1.4-.727 3.82.097 3.82-1.916 0-3.12.02-7.223-2.5-9.587-3.93-3.679-9.68-5.141-14.773-6.471-6.71-1.752-12.31-4.69-19.45-3.125-5.28 1.158-9.451 5.718-10.968 10.82-.556 1.867-1.26 5.525-1.347 6.574-.044.519 1.289-.478 1.678-1.014Z" stroke="#fff" stroke-width="2" stroke-miterlimit="10" stroke-linecap="round" stroke-linejoin="round"/><path d="M66.28 43.972c-.2 1.711-.63 2.95-.22 7.175.28 2.777.73 5.696 1.52 8.364.75 2.559 2.24 7.324 4.59 8.647 1.69.953 9.46-2.243 10.49-4.267 3.75-7.411 3.03-16.846-.75-24.368-1.75-3.486-8.36-3.39-11.97-3.225" stroke="#fff" stroke-width="2" stroke-miterlimit="10" stroke-linecap="round" stroke-linejoin="round"/><path d="M73.51 36.248s-.44 1.43-.49 1.577c-.24.816-.2.73-.42 1.552-.57 2.08-.89 4.221-1.08 6.372-.62 6.798.81 17.051 7.62 20.454m-61.801-8.434c.393 7.92 3 16.236 5.597 19.057 2.099 2.28 4.907 1.37 8.296 1.001m30.195-42.331c-.408-4.562-3.79-5.6-5.664-5.791-9.041-.929-18.757.016-27.86 2.517-2.882.793-8.782 2.434-9.244 5.107-.255 1.477-1.06 5.084-1.06 5.084M67.87 60.467c-1.95 4.988-7.371 9.189-14.908 10.513" stroke="#fff" stroke-width="2" stroke-miterlimit="10" stroke-linecap="round" stroke-linejoin="round"/><path d="M52.305 69.458c.378.206.284.558.377 1.169.068.45.327 1.362.185 1.803-.204.632-3.042.605-3.529.233-1.68-1.283 1.87-3.804 2.967-3.205Z" fill="#fff" stroke="#fff" stroke-width="2" stroke-miterlimit="10" stroke-linecap="round" stroke-linejoin="round"/></svg>