<svg width="101" height="100" fill="none" xmlns="http://www.w3.org/2000/svg"><path d="m42.578 26.586 35.956-.963.734 27.416-38.265 1.024" stroke="#000" stroke-width="2" stroke-linecap="round"/><path d="M48.96 38.048c-.385-.278-5.709-6.02-8.14-6.747-2.43-.728-12.455-.892-13.573-.43-1.117.463-3.8 1.835-3.9 3.712m.742-6.303c.023-2.486.308-7.732 1.265-8.83 1.197-1.373 10.316-9.34 11.491-9.533 1.175-.192 2.58 1.933 1.836 4.206-.744 2.272-7.912 9.258-7.912 9.258s.032 1.165.243 1.731" stroke="#000" stroke-width="2" stroke-linecap="round"/><path d="M22.598 41.057c.095-1.064.643-5.693.614-6.778-.036-1.355.954-6.475 2.34-7.692 1.385-1.216 2.652-1.695 8.944-1.569 6.292.127 6.618.767 8.882 2.417 1.603 1.169 5.446 4.756 7.455 7.256m-4.406 7.37c.397.225 1.069.331 2.009.351m-15.77-.219c1.042-.115 3.399-.54 4.489-1.324" stroke="#000" stroke-width="2" stroke-linecap="round"/><path d="M34.893 43.729c2.613 1.902 8.44 5.283 10.931 4.835 3.114-.56 2.837-4.461 1.585-5.516-1.253-1.055-8.36-7.395-9.936-7.83-1.576-.433-10.121-2.013-13.372 1.819-.77.909-1.286 1.976-1.614 4.978-.328 3.001-2.062 7.956 1.556 22.54 1.97 10.073.55 20.594.55 20.594 9.554 2.84 19.046 1.25 19.046 1.25l-5.447-24.331" stroke="#000" stroke-width="2" stroke-linecap="round"/><path d="M37.096 62.124c2.11-1.563 3.426-4.495 3.547-7.617.152-3.902-.192-7.178-5.925-12.236M73.727 25.8c-.304.035-1.614.054-2.23.06l.097 3.653 6.723-.18m-31.151-6.225-9.134.245" stroke="#000" stroke-width="2" stroke-linecap="round"/><circle cx="60.303" cy="42.188" r="11.5" transform="rotate(-1.533 60.303 42.188)" stroke="#000" stroke-width="2" stroke-linecap="round"/><path d="m46.043 23.328.072 2.664" stroke="#000" stroke-width="2" stroke-linecap="round"/><path fill-rule="evenodd" clip-rule="evenodd" d="M52.192 42.169a8.002 8.002 0 1 1 16-.429 8.002 8.002 0 0 1-16 .429Zm10.524-5.877a1 1 0 0 0-.693 1.876c.64.237 2.096 1.26 2.151 3.319a1 1 0 1 0 2-.053c-.084-3.103-2.287-4.71-3.458-5.142Z" fill="#000"/><path d="M52.74 83.992c2.447-3.383-5.424-4.735-10.013-4.91l1.146 8.27c2.167-.37 6.822-.531 8.867-3.36Z" fill="#000"/></svg>