<svg width="101" height="100" fill="none" xmlns="http://www.w3.org/2000/svg"><path d="m46.409 65.55-.47 4.912 5.632 6.181 5.919-6.448-.7-4.884" stroke="#fff" stroke-width="2" stroke-miterlimit="10" stroke-linecap="round"/><path d="M45.94 70.462s-8.724.517-10.816 1.753c-2.092 1.237-5.491 3.76-5.79 7.695M57.856 70.186s3.73.016 7.182.879c3.451.862 6.216 2 7.19 4.887.863 4.025 1.079 4.556 1.079 4.556M38.667 50.51s-1.526-5.757.25-7.951c1.776-2.269 3.56-7.21 11.971-7.256 6.364.002 11.226 4.567 12.01 6.776.783 2.21 1.348 4.424.685 7.335" stroke="#fff" stroke-width="2" stroke-miterlimit="10" stroke-linecap="round"/><path d="M41.47 54.676s.004-7.461 0-7.61c.213-.958 7.86-4.775 12.302-2.338 4.442 2.438 5.565-2.936 6.067-2.06.764 1.394.949 3.023 1.028 6.363.079 3.339.128 8.535.128 8.535s-.36 6.394-5.438 8.219c-5.077 1.825-9.86.599-12.068-3.063-.457-.806-.995-1.907-1.32-3.236a13.851 13.851 0 0 1-.698-4.81Z" stroke="#fff" stroke-width="2" stroke-miterlimit="10" stroke-linecap="round"/><path d="M61.17 49.47c1.683.035 3.109 1.562 3.295 3.265.27 2.147-1.282 4.559-3.477 4.535M40.92 49.936c-1.68.113-3.032 1.703-3.138 3.414-.168 2.157 1.496 4.494 3.687 4.37M22.487 30.564c-2.096-1.342-3.336-2.854-5.39-4.342.822-.892 64.954-1.709 65.639-1.337.684.372-5.558 5.88-6.253 5.88-2.892 0-51.684 1.279-53.996-.2Z" stroke="#fff" stroke-width="2" stroke-miterlimit="10" stroke-linecap="round"/><path d="M22.546 79.633c-.348 2.043-2.456 2.996-5.217 5.93-.836-.818-1.092-58.22-.743-58.9.349-.681 4.581 2.353 5.458 3.81 1.32 2.192.851 47.118.502 49.16ZM77.554 30.78c.393-2.047 2.82-3.126 5.922-5.419.944.82 1.33 60.206.937 60.889-.393.682-5.794-5.491-6.128-6.42-.983-2.73-1.124-47.002-.731-49.05Z" stroke="#fff" stroke-width="2" stroke-miterlimit="10" stroke-linecap="round"/><path d="M78.004 80.657c1.31 0 3.911 4.826 5.953 6.252-.817.855-65.528-.3-66.209-.656-.68-.356 4.042-5.314 6.22-6.026 2.723-.891 51.963.43 54.036.43ZM34.503 24.808l15.152-12.053 15.152 12.053" stroke="#fff" stroke-width="2" stroke-miterlimit="10" stroke-linecap="round"/><circle cx="49" cy="13.5" r="2.5" fill="#fff"/></svg>